<mxfile host="app.diagrams.net" modified="2022-11-18T02:23:46.387Z" agent="5.0 (X11; Linux x86_64) AppleWebKit/537.36 (KHTML, like Gecko) Chrome/107.0.0.0 Safari/537.36" etag="eXfGJCu5h7FtZ63tD7ws" version="20.4.0" type="github">
  <diagram id="nFy8_FYWTB8VlEaXNXf4" name="第 1 页">
    <mxGraphModel dx="1355" dy="712" grid="1" gridSize="10" guides="1" tooltips="1" connect="1" arrows="1" fold="1" page="1" pageScale="1" pageWidth="827" pageHeight="1169" math="0" shadow="0">
      <root>
        <mxCell id="0" />
        <mxCell id="1" parent="0" />
      </root>
    </mxGraphModel>
  </diagram>
</mxfile>
